<?xml version="1.0" encoding="utf-8"?>
<!-- Generator: Adobe Illustrator 16.0.3, SVG Export Plug-In . SVG Version: 6.00 Build 0)  -->
<!DOCTYPE svg PUBLIC "-//W3C//DTD SVG 1.1//EN" "http://www.w3.org/Graphics/SVG/1.1/DTD/svg11.dtd">
<svg version="1.1" xmlns="http://www.w3.org/2000/svg" xmlns:xlink="http://www.w3.org/1999/xlink" x="0px" y="0px" width="102px"
	 height="102px" viewBox="0 0 102 102" enable-background="new 0 0 102 102" xml:space="preserve">
<g id="icono_1" display="none">
</g>
<g id="_x31_-icon_lideresen_diseño" display="none">
	<g display="inline">
		<path fill="#F2AF2A" d="M49.903,78.193c-8.9,0-18.358-2.712-18.358-7.735c0-5.024,9.458-7.736,18.358-7.736
			c8.898,0,18.357,2.712,18.357,7.736C68.261,75.481,58.802,78.193,49.903,78.193z M49.903,65.494
			c-9.515,0-15.587,2.939-15.587,4.964s6.072,4.965,15.587,4.965s15.587-2.94,15.587-4.965S59.418,65.494,49.903,65.494z"/>
		<g>
			<ellipse fill="#F2AF2A" cx="49.805" cy="47.206" rx="5.922" ry="6.106"/>
			<path fill="#F2AF2A" d="M55.727,55.633l-2.932,8.529l-0.884-4.575l-3.04,0.066l-0.81,4.146l-2.599-7.855
				c0,0-8.064-0.937-7.854,7.699c0.207,8.635,0.207,6.814,0.207,6.814s11.08,2.184,25.02-0.052c-0.034-2.495,0-8.844,0-8.844
				S61.274,55.528,55.727,55.633z"/>
			<polygon fill="#F2AF2A" points="47.515,55 48.66,58 51.963,58 53.265,55 			"/>
		</g>
		<path fill="#F2AF2A" d="M15.901,53.845c-4.916,0-10.14-1.481-10.14-4.227c0-2.746,5.224-4.229,10.14-4.229
			c4.917,0,10.141,1.482,10.141,4.229C26.042,52.363,20.817,53.845,15.901,53.845z M15.901,46.775c-5.424,0-8.755,1.656-8.755,2.843
			c0,1.186,3.331,2.842,8.755,2.842c5.425,0,8.755-1.656,8.755-2.842C24.656,48.431,21.326,46.775,15.901,46.775z"/>
		<g>
			<ellipse fill="#F2AF2A" cx="15.847" cy="36.675" rx="3.296" ry="3.398"/>
			<path fill="#F2AF2A" d="M19.143,41.365l-1.63,4.749l-0.493-2.548l-1.692,0.038l-0.453,2.308l-1.445-4.373
				c0,0-4.49-0.521-4.373,4.287c0.116,4.806,0.116,3.792,0.116,3.792s6.167,1.216,13.927-0.029c-0.018-1.388,0-4.922,0-4.922
				S22.229,41.307,19.143,41.365z"/>
			<polygon fill="#F2AF2A" points="14.571,42 15.208,44 17.047,44 17.772,42 			"/>
		</g>
		<path fill="#F2AF2A" d="M86.099,53.845c-4.916,0-10.14-1.481-10.14-4.227c0-2.746,5.224-4.229,10.14-4.229
			s10.141,1.482,10.141,4.229C96.239,52.363,91.015,53.845,86.099,53.845z M86.099,46.775c-5.425,0-8.754,1.656-8.754,2.843
			c0,1.186,3.329,2.842,8.754,2.842s8.755-1.656,8.755-2.842C94.854,48.431,91.523,46.775,86.099,46.775z"/>
		<g>
			<ellipse fill="#F2AF2A" cx="86.044" cy="36.675" rx="3.296" ry="3.398"/>
			<path fill="#F2AF2A" d="M89.341,41.365l-1.631,4.749l-0.493-2.548l-1.691,0.038l-0.452,2.308l-1.446-4.373
				c0,0-4.489-0.521-4.373,4.287c0.115,4.806,0.115,3.792,0.115,3.792s6.169,1.216,13.928-0.029c-0.019-1.388,0-4.922,0-4.922
				S92.428,41.307,89.341,41.365z"/>
			<polygon fill="#F2AF2A" points="84.77,42 85.406,44 87.244,44 87.97,42 			"/>
		</g>
		<path fill="#F2AF2A" d="M49.153,37.452c-3.262,0-6.727-0.982-6.727-2.805c0-1.822,3.465-2.805,6.727-2.805
			c3.261,0,6.727,0.983,6.727,2.805C55.88,36.47,52.414,37.452,49.153,37.452z M49.153,32.762c-3.599,0-5.809,1.099-5.809,1.886
			c0,0.788,2.21,1.885,5.809,1.885s5.808-1.098,5.808-1.885C54.961,33.86,52.752,32.762,49.153,32.762z"/>
		<g>
			<path fill="#F2AF2A" d="M51.303,26.062c0,1.245-0.978,2.254-2.189,2.254c-1.207,0-2.184-1.009-2.184-2.254
				c0-1.246,0.978-2.255,2.184-2.255C50.325,23.806,51.303,24.815,51.303,26.062z"/>
			<path fill="#F2AF2A" d="M51.303,29.172l-1.083,3.15l-0.326-1.69l-1.123,0.025l-0.301,1.53l-0.958-2.901
				c0,0-2.979-0.345-2.901,2.843s0.078,2.517,0.078,2.517s4.091,0.807,9.238-0.019c-0.013-0.921,0-3.266,0-3.266
				S53.351,29.134,51.303,29.172z"/>
			<polygon fill="#F2AF2A" points="48.271,30 48.692,30 49.912,30 50.394,30 			"/>
		</g>
		
			<rect x="19.77" y="58.297" transform="matrix(0.8242 0.5663 -0.5663 0.8242 38.9393 -7.4439)" fill="#F2AF2A" width="23.375" height="1.385"/>
		
			<rect x="69.561" y="47.302" transform="matrix(0.5656 0.8247 -0.8247 0.5656 79.1687 -32.3108)" fill="#F2AF2A" width="1.383" height="23.376"/>
		
			<rect x="33.125" y="29.748" transform="matrix(0.4843 0.8749 -0.8749 0.4843 53.6437 -7.9751)" fill="#F2AF2A" width="0.924" height="23.531"/>
		
			<rect x="53.107" y="41.555" transform="matrix(0.8766 0.4813 -0.4813 0.8766 28.3659 -26.5689)" fill="#F2AF2A" width="25.75" height="0.924"/>
	</g>
	<path display="inline" fill="#F2AF2A" d="M51,101.194C23.323,101.194,0.806,78.678,0.806,51C0.806,23.323,23.323,0.806,51,0.806
		c27.678,0,50.194,22.517,50.194,50.194C101.194,78.678,78.678,101.194,51,101.194z M51,1.806C23.875,1.806,1.806,23.875,1.806,51
		c0,27.126,22.068,49.194,49.194,49.194c27.126,0,49.194-22.068,49.194-49.194C100.194,23.875,78.126,1.806,51,1.806z"/>
</g>
<g id="_x32_-icon_sitios_web_optimizados" display="none">
	<path display="inline" fill="#F2AF2A" d="M51,101.194C23.323,101.194,0.806,78.678,0.806,51C0.806,23.323,23.323,0.806,51,0.806
		c27.678,0,50.194,22.517,50.194,50.194C101.194,78.678,78.678,101.194,51,101.194z M51,1.806C23.875,1.806,1.806,23.875,1.806,51
		c0,27.126,22.068,49.194,49.194,49.194c27.126,0,49.194-22.068,49.194-49.194C100.194,23.875,78.126,1.806,51,1.806z"/>
	<g display="inline">
		<path fill-rule="evenodd" clip-rule="evenodd" fill="#F2AF2A" d="M38.843,65.744c-1.44-4.327-2.124-8.71-2.256-13.222
			c4.331,0,8.616,0,12.931,0c0,3.768,0,7.521,0,11.345C45.904,64.026,42.353,64.604,38.843,65.744z"/>
		<path fill-rule="evenodd" clip-rule="evenodd" fill="#F2AF2A" d="M49.51,49.571c-4.313,0-8.587,0-12.921,0
			c0.123-4.512,0.812-8.904,2.255-13.227c3.48,1.119,7.018,1.716,10.666,1.867C49.51,41.995,49.51,45.758,49.51,49.571z"/>
		<path fill-rule="evenodd" clip-rule="evenodd" fill="#F2AF2A" d="M65.42,49.562c-4.346,0-8.631,0-12.938,0
			c0-3.785,0-7.551,0-11.351c3.641-0.148,7.18-0.74,10.666-1.871C64.604,40.646,65.269,45.042,65.42,49.562z"/>
		<path fill-rule="evenodd" clip-rule="evenodd" fill="#F2AF2A" d="M52.472,63.776c0-3.704,0-7.46,0-11.249
			c4.305,0,8.589,0,12.942,0c-0.133,4.485-0.818,8.868-2.225,13.119c-1.772-0.4-3.514-0.865-5.283-1.175
			C56.13,64.162,54.326,64.006,52.472,63.776z"/>
		<path fill-rule="evenodd" clip-rule="evenodd" fill="#F2AF2A" d="M65.911,35.414c1.812-0.969,3.541-1.894,5.34-2.856
			c4.303,4.789,6.713,10.449,7.138,17.004c-3.371,0-6.679,0-10.058,0C68.179,44.716,67.442,39.962,65.911,35.414z"/>
		<path fill-rule="evenodd" clip-rule="evenodd" fill="#F2AF2A" d="M30.748,32.558c1.797,0.961,3.54,1.892,5.339,2.853
			c-0.743,2.225-1.375,4.563-1.711,6.962c-0.333,2.381-0.552,4.778-0.825,7.194c-3.239,0-6.549,0-9.94,0
			C24.031,43.02,26.436,37.359,30.748,32.558z"/>
		<path fill-rule="evenodd" clip-rule="evenodd" fill="#F2AF2A" d="M33.67,52.533c0.15,4.84,0.882,9.584,2.421,14.14
			c-1.781,0.951-3.534,1.887-5.347,2.852c-4.3-4.792-6.708-10.446-7.137-16.991C26.977,52.533,30.298,52.533,33.67,52.533z"/>
		<path fill-rule="evenodd" clip-rule="evenodd" fill="#F2AF2A" d="M78.392,52.526c-0.438,6.557-2.837,12.212-7.142,16.999
			c-1.802-0.964-3.542-1.894-5.338-2.855c0.749-2.22,1.369-4.547,1.707-6.931c0.337-2.382,0.557-4.779,0.833-7.213
			C71.681,52.526,74.999,52.526,78.392,52.526z"/>
		<path fill-rule="evenodd" clip-rule="evenodd" fill="#F2AF2A" d="M49.523,23.686c0,3.951,0,7.746,0,11.601
			c-3.29-0.122-6.476-0.653-9.619-1.657c1.01-2.293,2.23-4.406,3.88-6.25c1.03-1.152,2.184-2.163,3.586-2.839
			C48.034,24.221,48.741,23.993,49.523,23.686z"/>
		<path fill-rule="evenodd" clip-rule="evenodd" fill="#F2AF2A" d="M39.917,68.488c1.875-0.816,8.089-1.872,9.604-1.638
			c0,3.792,0,7.587,0,11.464c-0.314-0.085-0.614-0.146-0.902-0.241c-1.758-0.586-3.2-1.651-4.465-2.976
			C42.315,73.176,41.004,70.917,39.917,68.488z"/>
		<path fill-rule="evenodd" clip-rule="evenodd" fill="#F2AF2A" d="M62.188,33.601c-3.248,1.034-6.427,1.563-9.709,1.689
			c0-3.855,0-7.663,0-11.511c1.074,0.202,2.023,0.622,2.913,1.181c1.921,1.208,3.399,2.861,4.594,4.76
			C60.762,30.955,61.429,32.256,62.188,33.601z"/>
		<path fill-rule="evenodd" clip-rule="evenodd" fill="#F2AF2A" d="M52.478,78.272c0-3.816,0-7.625,0-11.479
			c3.271,0.131,6.453,0.644,9.562,1.645c0,0.068,0.013,0.115-0.002,0.147c-1.231,2.73-2.75,5.264-5.001,7.294
			c-1.174,1.062-2.493,1.883-4.034,2.311c-0.124,0.033-0.25,0.063-0.376,0.089C52.586,78.286,52.543,78.274,52.478,78.272z"/>
		<path fill-rule="evenodd" clip-rule="evenodd" fill="#F2AF2A" d="M69.096,71.628c-2.665,2.318-5.556,4.021-8.79,5.163
			c1.91-2.187,3.35-4.658,4.553-7.38C66.279,70.154,67.656,70.875,69.096,71.628z"/>
		<path fill-rule="evenodd" clip-rule="evenodd" fill="#F2AF2A" d="M41.679,25.301c-1.9,2.185-3.334,4.648-4.538,7.371
			c-1.417-0.739-2.795-1.458-4.242-2.213C35.563,28.141,38.449,26.439,41.679,25.301z"/>
		<path fill-rule="evenodd" clip-rule="evenodd" fill="#F2AF2A" d="M37.14,69.409c1.201,2.717,2.637,5.184,4.539,7.372
			c-3.229-1.135-6.112-2.84-8.778-5.155C34.344,70.872,35.72,70.151,37.14,69.409z"/>
		<path fill-rule="evenodd" clip-rule="evenodd" fill="#F2AF2A" d="M69.104,30.455c-1.467,0.765-2.832,1.479-4.247,2.217
			c-1.2-2.707-2.626-5.178-4.534-7.364C63.544,26.431,66.413,28.14,69.104,30.455z"/>
	</g>
</g>
<g id="_x33_-diseños_creativos" display="none">
	<path display="inline" fill="#F2AF2A" d="M51,101.194C23.323,101.194,0.806,78.678,0.806,51C0.806,23.323,23.323,0.806,51,0.806
		c27.678,0,50.194,22.517,50.194,50.194C101.194,78.678,78.678,101.194,51,101.194z M51,1.806C23.875,1.806,1.806,23.875,1.806,51
		c0,27.126,22.068,49.194,49.194,49.194c27.126,0,49.194-22.068,49.194-49.194C100.194,23.875,78.126,1.806,51,1.806z"/>
	<g display="inline">
		<path fill-rule="evenodd" clip-rule="evenodd" fill="#F2AF2A" d="M50.982,69.293c-2.331,0-4.661,0.004-6.992-0.001
			c-1.404-0.004-2.049-0.589-2.091-2.001c-0.133-4.403-1.845-8.089-4.98-11.146c-2.281-2.225-4.009-4.823-4.959-7.866
			c-2.304-7.382-0.983-14.074,4.103-19.928c2.897-3.334,6.591-5.448,10.922-6.274c6.514-1.243,12.349,0.304,17.363,4.684
			c3.328,2.907,5.456,6.568,6.341,10.887c1.044,5.102,0.258,9.94-2.408,14.447c-0.93,1.573-2.088,2.963-3.379,4.246
			c-1.788,1.777-3.137,3.833-3.956,6.225c-0.53,1.548-0.789,3.142-0.845,4.773c-0.045,1.325-0.678,1.946-2.012,1.952
			C55.72,69.3,53.352,69.293,50.982,69.293z M56.727,65.823c0.022-0.14,0.043-0.231,0.053-0.325c0.38-3.207,1.438-6.175,3.342-8.78
			c0.976-1.334,2.152-2.523,3.261-3.758c2.497-2.777,3.939-6.027,4.242-9.737c0.352-4.301-0.817-8.181-3.423-11.641
			c-3.839-5.097-10.873-7.636-17.053-6.02c-6.271,1.639-10.422,5.597-12.211,11.824c-1.356,4.716-0.659,9.257,2.046,13.373
			c0.966,1.468,2.255,2.729,3.428,4.056c1.298,1.471,2.378,3.077,3.195,4.859c0.832,1.817,1.372,3.716,1.61,5.702
			c0.02,0.167,0.186,0.448,0.291,0.452c1.002,0.035,2.005,0.021,3.073,0.021c-0.08-0.291-0.126-0.489-0.19-0.683
			c-0.705-2.116-1.414-4.23-2.118-6.346c-0.795-2.387-1.599-4.771-2.376-7.165c-0.4-1.231,0.307-2.356,1.54-2.367
			c3.705-0.033,7.411-0.029,11.116-0.002c1.17,0.008,1.893,1.044,1.612,2.183c-0.047,0.185-0.103,0.368-0.162,0.548
			c-1.468,4.394-2.936,8.785-4.401,13.179c-0.063,0.191-0.111,0.389-0.18,0.627C54.55,65.823,55.611,65.823,56.727,65.823z
			 M51,62.126c1.073-3.215,2.098-6.289,3.134-9.394c-2.112,0-4.15,0-6.262,0C48.906,55.84,49.927,58.905,51,62.126z"/>
		<path fill-rule="evenodd" clip-rule="evenodd" fill="#F2AF2A" d="M51.006,71.382c1.793,0,3.588-0.005,5.382,0.004
			c1.085,0.004,1.841,0.699,1.859,1.68c0.02,0.983-0.769,1.748-1.863,1.751c-3.588,0.012-7.176,0.01-10.764,0
			c-1.002-0.002-1.702-0.588-1.825-1.469c-0.119-0.853,0.341-1.621,1.154-1.873c0.249-0.076,0.525-0.087,0.789-0.089
			C47.494,71.379,49.25,71.382,51.006,71.382z"/>
		<path fill-rule="evenodd" clip-rule="evenodd" fill="#F2AF2A" d="M50.959,80.336c-1.165,0-2.331,0.007-3.496-0.002
			c-1.107-0.009-1.864-0.731-1.848-1.746c0.015-0.989,0.764-1.684,1.85-1.688c2.349-0.008,4.699-0.007,7.048,0
			c1.106,0.004,1.894,0.729,1.894,1.718c-0.001,0.989-0.788,1.71-1.896,1.717C53.328,80.343,52.144,80.336,50.959,80.336z"/>
	</g>
</g>
<g id="_x34_-diseño_web_adaptable" display="none">
	<path display="inline" fill="#F2AF2A" d="M51,101.194C23.323,101.194,0.806,78.678,0.806,51C0.806,23.323,23.323,0.806,51,0.806
		c27.678,0,50.194,22.517,50.194,50.194C101.194,78.678,78.678,101.194,51,101.194z M51,1.806C23.875,1.806,1.806,23.875,1.806,51
		c0,27.126,22.068,49.194,49.194,49.194c27.126,0,49.194-22.068,49.194-49.194C100.194,23.875,78.126,1.806,51,1.806z"/>
	<g display="inline">
		<path fill-rule="evenodd" clip-rule="evenodd" fill="#F2AF2A" d="M52.511,28.112c5.95,0,11.901-0.002,17.852,0
			c3.778,0.002,6.043,2.253,6.045,6.009c0.003,7.598,0.003,15.196,0,22.795c-0.002,3.766-2.267,6.032-6.019,6.032
			c-11.33,0.001-22.66-0.012-33.99,0.024c-0.944,0.002-1.226-0.264-1.145-1.174c0.077-0.868,0.039-1.748,0.009-2.621
			c-0.017-0.49,0.171-0.648,0.644-0.631c0.739,0.028,1.479,0.007,2.219,0.007c10.658,0,21.315,0.001,31.974,0
			c1.659,0,1.897-0.243,1.897-1.936c0-7.464,0.001-14.928-0.001-22.392c0-1.408-0.297-1.703-1.719-1.703
			c-11.902-0.002-23.803-0.002-35.705,0c-1.395,0-1.692,0.305-1.693,1.727c-0.002,2.757-0.015,5.515,0.01,8.271
			c0.005,0.577-0.057,0.821-0.753,0.739c-0.929-0.11-1.88-0.065-2.82-0.033c-0.587,0.021-0.848-0.136-0.843-0.779
			c0.025-2.992-0.043-5.985,0.027-8.976c0.073-3.111,2.464-5.346,5.654-5.355C40.272,28.099,46.391,28.112,52.511,28.112z"/>
		<path fill-rule="evenodd" clip-rule="evenodd" fill="#F2AF2A" d="M85.095,66.165c0.13-0.888-0.199-1.122-1.097-1.118
			c-7.931,0.038-15.86,0.022-23.79,0.022c-7.997,0-15.995,0.01-23.992-0.017c-0.737-0.002-0.996,0.164-0.964,0.94
			c0.063,1.543,0.064,3.093,0,4.636c-0.034,0.821,0.185,1.063,1.039,1.062c14.416-0.028,28.831-0.021,43.247-0.017
			c0.95,0,1.89-0.12,2.77-0.446c1.667-0.619,3.02-1.447,2.783-3.854C85.053,66.973,85.037,66.561,85.095,66.165z M54.907,68.396
			c-1.643,0.009-3.287,0.008-4.929-0.013c-0.335-0.004-0.731-0.093-0.745-0.517c-0.017-0.488,0.387-0.575,0.774-0.58
			c0.839-0.012,1.677-0.004,2.515-0.004c0.772,0,1.544-0.009,2.315,0.004c0.381,0.006,0.792,0.066,0.786,0.563
			C55.619,68.267,55.261,68.395,54.907,68.396z"/>
		<path fill-rule="evenodd" clip-rule="evenodd" fill="#F2AF2A" d="M34.286,47.164c-0.006-2.01-1.044-3.029-3.066-3.034
			c-3.766-0.009-7.532-0.01-11.298,0c-2.049,0.005-3.042,1.001-3.042,3.019c-0.002,7.868-0.001,15.737-0.001,23.604
			c0,2.161,0.969,3.134,3.133,3.137c3.666,0.004,7.331,0.002,10.996,0c2.326-0.001,3.28-0.965,3.282-3.322
			c0.004-3.833,0.001-7.668,0.001-11.501C34.291,55.1,34.3,51.131,34.286,47.164z M22.804,47.057
			c0.043-0.498,0.358-0.776,0.872-0.781c0.636-0.007,1.271-0.002,1.907-0.002c0.603,0,1.205,0.005,1.807-0.002
			c0.562-0.007,0.92,0.273,0.946,0.814c0.023,0.483-0.283,0.868-0.779,0.881c-1.335,0.036-2.674,0.039-4.008-0.01
			C23.062,47.939,22.759,47.568,22.804,47.057z M32.923,58.986c0,2.657,0.004,5.313-0.002,7.971
			c-0.003,1.375-0.351,1.713-1.743,1.715c-3.767,0.003-7.534,0.004-11.3-0.001c-1.272-0.001-1.722-0.419-1.725-1.677
			c-0.012-5.348-0.012-10.694,0-16.042c0.003-1.171,0.487-1.618,1.689-1.62c3.834-0.007,7.668-0.008,11.501,0
			c1.166,0.003,1.57,0.406,1.575,1.583C32.931,53.605,32.922,56.296,32.923,58.986z"/>
	</g>
</g>
<g id="_x35_-capacitacion_en_adm._de_contenido" display="none">
	<path display="inline" fill="#F2AF2A" d="M51,101.194C23.323,101.194,0.806,78.678,0.806,51C0.806,23.323,23.323,0.806,51,0.806
		c27.678,0,50.194,22.517,50.194,50.194C101.194,78.678,78.678,101.194,51,101.194z M51,1.806C23.875,1.806,1.806,23.875,1.806,51
		c0,27.126,22.068,49.194,49.194,49.194c27.126,0,49.194-22.068,49.194-49.194C100.194,23.875,78.126,1.806,51,1.806z"/>
	<g display="inline">
		<path fill-rule="evenodd" clip-rule="evenodd" fill="#F2AF2A" d="M51,25.347c9.296,0,18.593,0.015,27.889-0.016
			c1.562-0.005,2.792,1.141,2.788,2.781c-0.026,11-0.014,22.001-0.014,33.001c0,1.629-1.065,2.698-2.702,2.698
			c-18.663,0.001-37.326,0.001-55.988,0c-1.563,0-2.648-1.087-2.648-2.645c-0.001-11.047-0.001-22.094-0.001-33.141
			c0-1.609,1.071-2.679,2.682-2.679C32.337,25.346,41.668,25.347,51,25.347z M50.983,58.462c9.273,0,18.547,0,27.821,0
			c0.104,0,0.209,0.004,0.313-0.001c0.381-0.019,0.654-0.258,0.715-0.634c0.018-0.113,0.014-0.231,0.014-0.347
			c0-9.784,0-19.567,0-29.351c0-0.081,0.004-0.163-0.004-0.243c-0.036-0.408-0.285-0.66-0.69-0.694
			c-0.126-0.011-0.255-0.005-0.382-0.005c-15.997,0-31.994-0.001-47.991-0.001c-2.562,0-5.124-0.001-7.686,0.002
			c-0.735,0.001-0.951,0.223-0.951,0.958c-0.001,9.795-0.001,19.59,0,29.386c0,0.68,0.25,0.93,0.917,0.93
			C32.367,58.462,41.675,58.462,50.983,58.462z M67.111,59.909c-0.654-0.007-1.203,0.549-1.209,1.226
			c-0.006,0.649,0.537,1.204,1.184,1.211c0.666,0.007,1.231-0.546,1.23-1.203C68.315,60.477,67.768,59.916,67.111,59.909z
			 M71.674,59.908c-0.652,0.008-1.199,0.578-1.19,1.24c0.009,0.668,0.566,1.211,1.228,1.197c0.669-0.013,1.203-0.567,1.189-1.234
			C72.887,60.446,72.331,59.901,71.674,59.908z M77.485,61.134c-0.01-0.687-0.569-1.239-1.241-1.225
			c-0.652,0.015-1.187,0.582-1.178,1.252c0.008,0.646,0.558,1.187,1.205,1.185C76.938,62.345,77.495,61.789,77.485,61.134z"/>
		<path fill-rule="evenodd" clip-rule="evenodd" fill="#F2AF2A" d="M66.067,76.669c-10.068,0-20.078,0-30.086,0
			c-0.362-1.669,0.67-2.647,1.941-2.645c8.656,0.023,17.312,0.028,25.967-0.006c1.381-0.005,2.292,0.859,2.18,2.206
			C66.058,76.36,66.067,76.497,66.067,76.669z"/>
		<path fill-rule="evenodd" clip-rule="evenodd" fill="#F2AF2A" d="M49.134,64.65c0,0.155,0,0.292,0,0.428
			c0,1.402-0.007,2.804,0.004,4.206c0.006,0.838,0.5,1.519,1.255,1.781c0.736,0.256,1.505,0.039,2.003-0.566
			c0.308-0.375,0.428-0.81,0.426-1.291c-0.006-1.39-0.003-2.78-0.003-4.17c0-0.125,0-0.249,0-0.394c1.281,0,2.525,0,3.791,0
			c0,2.859,0,5.702,0,8.564c-3.743,0-7.469,0-11.225,0c0-2.845,0-5.687,0-8.559C46.612,64.65,47.844,64.65,49.134,64.65z"/>
		<path fill-rule="evenodd" clip-rule="evenodd" fill="#F2AF2A" d="M22.854,57.721c0-9.941,0-19.86,0-29.808c0.507,0,1.01,0,1.513,0
			c0.17,0.745,0.313,1.494,0.513,2.228c1.105,4.06,3.277,7.489,6.227,10.45c3.048,3.059,6.632,5.334,10.517,7.166
			c4.838,2.282,9.931,3.772,15.153,4.854c4.705,0.976,9.458,1.609,14.247,1.956c2.531,0.184,5.067,0.286,7.602,0.426
			c0.16,0.009,0.32,0.02,0.503,0.03c0,0.908,0,1.793,0,2.698C60.377,57.721,41.637,57.721,22.854,57.721z"/>
	</g>
</g>
<g id="_x36_-construim_x2C_os_relaciones__a_largo_plazo" display="none">
	<path display="inline" fill="#F2AF2A" d="M51,101.194C23.323,101.194,0.806,78.678,0.806,51C0.806,23.323,23.323,0.806,51,0.806
		c27.678,0,50.194,22.517,50.194,50.194C101.194,78.678,78.678,101.194,51,101.194z M51,1.806C23.875,1.806,1.806,23.875,1.806,51
		c0,27.126,22.068,49.194,49.194,49.194c27.126,0,49.194-22.068,49.194-49.194C100.194,23.875,78.126,1.806,51,1.806z"/>
	<g display="inline">
		<g>
			<path fill-rule="evenodd" clip-rule="evenodd" fill="#F2AF2A" d="M16.8,30.748c0.31-0.649,0.759-1.121,1.541-1.065
				c4.188,0.301,8.375,0.631,12.417,1.875c0.761,0.234,1.492,0.589,2.202,0.956c0.831,0.429,1.155,1.14,0.949,2.075
				c-0.052,0.235-0.057,0.481-0.094,0.82c0.271,0,0.485,0,0.699,0c3.374,0,6.748,0.012,10.121-0.016
				c0.367-0.003,0.79-0.153,1.087-0.37c2.141-1.563,4.45-2.545,7.168-2.259c1.687,0.178,3.243,0.772,4.79,1.426
				c2.383,1.008,4.78,1.979,7.173,2.962c0.204,0.083,0.417,0.144,0.636,0.219c0.005-1.318,0.218-1.619,1.444-2.092
				c3.824-1.475,7.815-2.174,11.877-2.511c1.579-0.131,3.168-0.14,4.75-0.24c0.875-0.055,1.516,0.243,1.907,1.037
				c0,8.852,0,17.703,0,26.555c-0.393,0.793-1.043,1.059-1.908,1.049c-2.501-0.028-5.003-0.009-7.504-0.01
				c-1.425,0-1.72-0.223-2.139-1.597c-0.063-0.21-0.142-0.416-0.253-0.74c-0.719,0.484-1.398,0.927-2.053,1.403
				c-0.102,0.074-0.123,0.313-0.116,0.472c0.114,2.751-1.628,4.792-4.376,5.153c-0.256,0.033-0.578,0.21-0.711,0.421
				c-1.246,1.976-3.061,2.787-5.337,2.645c-0.343-0.021-0.514,0.029-0.687,0.328c-1.164,2.013-3.707,3.215-5.765,2.481
				c-0.122-0.043-0.313-0.011-0.427,0.061c-1.647,1.03-3.382,0.943-5.165,0.456c-1.828-0.499-3.37-1.508-4.836-2.655
				c-3.533-2.768-7.11-5.481-10.567-8.34c-1.731-1.432-3.239-3.133-4.848-4.711c-0.063-0.062-0.128-0.12-0.267-0.249
				c-0.118,0.353-0.214,0.655-0.321,0.955c-0.234,0.659-0.692,1.028-1.405,1.028c-2.837,0.004-5.673-0.006-8.51,0.007
				c-0.728,0.003-1.121-0.441-1.475-0.974C16.8,48.452,16.8,39.6,16.8,30.748z M33.52,38.29c-1.311,4.832-2.599,9.565-3.869,14.304
				c-0.065,0.243-0.083,0.631,0.059,0.777c1.69,1.753,3.285,3.63,5.156,5.168c4.087,3.361,8.292,6.58,12.514,9.771
				c0.842,0.637,1.96,0.926,2.977,1.304c0.388,0.144,0.851,0.085,1.28,0.118c0.047-0.084,0.094-0.169,0.141-0.253
				c-1.458-1.41-2.921-2.813-4.369-4.234c-0.558-0.547-1.097-1.116-1.609-1.706c-0.545-0.628-0.499-1.45,0.065-1.99
				c0.555-0.532,1.389-0.521,1.992,0.033c0.197,0.182,0.371,0.387,0.561,0.576c2.171,2.155,4.343,4.312,6.518,6.464
				c0.53,0.525,1.142,0.544,1.79,0.245c0.654-0.303,1.112-0.786,1.44-1.582c-1.857-1.817-3.729-3.642-5.59-5.475
				c-0.397-0.392-0.789-0.795-1.133-1.232c-0.47-0.598-0.391-1.378,0.136-1.886c0.54-0.52,1.357-0.535,1.943-0.022
				c0.218,0.191,0.404,0.417,0.609,0.623c2.05,2.056,4.076,4.137,6.162,6.155c0.935,0.904,2.298,0.805,3.236-0.095
				c0.391-0.375,0.506-0.669,0.025-1.146c-2.557-2.53-5.076-5.098-7.596-7.665c-0.688-0.699-0.7-1.544-0.092-2.138
				c0.614-0.601,1.437-0.55,2.135,0.151c0.693,0.696,1.363,1.417,2.058,2.113c1.939,1.946,3.89,3.883,5.83,5.829
				c0.396,0.397,0.836,0.571,1.392,0.399c1.147-0.354,1.682-1.482,1.142-2.551c-0.269-0.531-0.608-1.056-1.021-1.481
				c-1.132-1.172-2.258-2.36-3.495-3.416c-3.773-3.217-7.595-6.378-11.413-9.542c-0.151-0.126-0.486-0.138-0.693-0.071
				c-0.698,0.226-1.362,0.566-2.068,0.755c-0.483,0.129-0.818,0.357-1.139,0.727c-2.006,2.311-4.481,3.246-7.501,2.438
				c-2.279-0.61-3.339-2.358-2.896-4.688c0.329-1.727,1.134-3.236,2.134-4.647c0.509-0.718,1.083-1.391,1.664-2.131
				C39.084,38.29,36.236,38.29,33.52,38.29z M70.197,57.702c0.762-0.512,1.476-1.011,2.211-1.474
				c0.314-0.197,0.332-0.394,0.213-0.719c-1.706-4.646-3.396-9.299-5.108-13.944c-0.08-0.217-0.3-0.456-0.512-0.542
				c-3.882-1.582-7.774-3.139-11.662-4.706c-2.464-0.993-4.874-1.089-7.147,0.492c-2.27,1.579-4.347,3.386-5.827,5.749
				c-0.593,0.948-0.968,2.043-1.36,3.103c-0.171,0.463-0.125,1.05,0.501,1.206c0.661,0.164,1.359,0.325,2.028,0.282
				c1.479-0.096,2.436-1.078,3.307-2.171c0.281-0.354,0.625-0.748,1.026-0.902c1.303-0.503,2.655-0.88,3.969-1.356
				c0.742-0.269,1.317-0.132,1.896,0.391c1.376,1.241,2.769,2.466,4.188,3.658C62.103,50.281,66.578,53.466,70.197,57.702z
				 M68.974,37.641c2.647,6.126,4.818,12.386,6.924,18.668c0.213,0.634,0.246,1.523,0.687,1.83c0.474,0.331,1.329,0.129,2.018,0.134
				c1.313,0.011,2.626,0.003,3.977,0.003c0-7.641,0-15.205,0-22.763C80.242,35.118,71.439,36.493,68.974,37.641z M19.703,32.638
				c0,7.636,0,15.194,0,22.751c2.055,0,4.056,0,6.085,0c0.517-1.711,1.044-3.392,1.532-5.084c1.429-4.952,2.828-9.909,3.63-15.015
				c0.101-0.64-0.172-0.771-0.632-0.912C26.88,33.333,23.329,32.985,19.703,32.638z"/>
		</g>
	</g>
</g>
<g id="_x37_-alto_nivel_de_satifacion" display="none">
	<path display="inline" fill="#F2AF2A" d="M51,101.194C23.323,101.194,0.806,78.678,0.806,51C0.806,23.323,23.323,0.806,51,0.806
		c27.678,0,50.194,22.517,50.194,50.194C101.194,78.678,78.678,101.194,51,101.194z M51,1.806C23.875,1.806,1.806,23.875,1.806,51
		c0,27.126,22.068,49.194,49.194,49.194c27.126,0,49.194-22.068,49.194-49.194C100.194,23.875,78.126,1.806,51,1.806z"/>
	<g display="inline">
		<path fill-rule="evenodd" clip-rule="evenodd" fill="#F2AF2A" d="M76.357,60.778c1.377,0,2.581,0,3.852,0
			c0,2.271,0.162,4.467-0.039,6.628c-0.268,2.873-2.759,5.027-5.667,5.032c-15.677,0.026-31.354,0.027-47.029-0.003
			c-3.04-0.005-5.559-2.429-5.697-5.417c-0.094-2.024-0.018-4.055-0.018-6.217c1.267,0,2.5,0,3.887,0c0-0.563,0-0.993,0-1.424
			c0-7.797-0.003-15.595,0.001-23.392c0.002-4.058,2.377-6.44,6.423-6.442c12.63-0.002,25.261-0.002,37.891,0
			c3.982,0.001,6.393,2.39,6.396,6.347c0.007,7.797,0.001,15.595,0.001,23.392C76.357,59.724,76.357,60.163,76.357,60.778z
			 M72.457,60.694c0-0.478,0-0.874,0-1.272c0-7.756,0.002-15.513-0.001-23.268c0-2.13-0.595-2.71-2.772-2.71
			c-12.467-0.001-24.935-0.001-37.401,0c-2.155,0.001-2.735,0.583-2.735,2.747c-0.002,7.755-0.001,15.511-0.001,23.268
			c0,0.394,0,0.788,0,1.235C43.872,60.694,58.072,60.694,72.457,60.694z M76.357,64.728c-16.978,0-33.805,0-50.624,0
			c-0.325,3.268,0.173,3.825,3.331,3.825c11.002,0,22.005,0,33.009,0c3.897,0,7.794,0.003,11.693-0.001
			c1.965-0.003,2.59-0.647,2.591-2.648C76.358,65.541,76.357,65.18,76.357,64.728z"/>
		<path fill-rule="evenodd" clip-rule="evenodd" fill="#F2AF2A" d="M45.383,42.514c2.458,2.471,4.974,5,7.384,7.42
			c2.902-2.903,5.783-5.789,8.643-8.649c-1.342,0-2.888,0-4.492,0c0-1.35,0-2.553,0-3.848c3.817,0,7.648,0,11.559,0
			c0,3.815,0,7.645,0,11.543c-1.225,0-2.427,0-3.771,0c0-1.527,0-3.082,0-4.729c-3.903,3.918-7.689,7.721-11.461,11.507
			c-2.746-2.762-5.281-5.315-7.798-7.848c-2.916,2.922-5.652,5.667-8.432,8.454c-1.018-1.147-1.839-2.073-2.586-2.914
			C37.911,49.974,41.578,46.313,45.383,42.514z"/>
	</g>
</g>
<g id="_x38_-estamos_conectrados_100_x25__en_calidad">
	<path fill="#F2AF2A" d="M51,101.194C23.323,101.194,0.806,78.678,0.806,51C0.806,23.323,23.323,0.806,51,0.806
		c27.678,0,50.194,22.517,50.194,50.194C101.194,78.678,78.678,101.194,51,101.194z M51,1.806C23.875,1.806,1.806,23.875,1.806,51
		c0,27.126,22.068,49.194,49.194,49.194c27.126,0,49.194-22.068,49.194-49.194C100.194,23.875,78.126,1.806,51,1.806z"/>
	<g>
		<path fill-rule="evenodd" clip-rule="evenodd" fill="#F2AF2A" d="M51.604,21.834c0.797-0.001,2.063,0.461,3.196,1.309
			c1.165,0.872,2.337,1.733,3.491,2.619c1.162,0.891,2.456,1.345,3.924,1.388c1.495,0.043,2.99,0.136,4.481,0.253
			c2.771,0.218,4.908,2.09,5.577,4.852c0.371,1.532,0.726,3.067,1.087,4.601c0.276,1.171,0.868,2.16,1.738,2.982
			c1.088,1.028,2.188,2.043,3.272,3.074c2.291,2.175,2.771,4.898,1.361,7.718c-0.549,1.099-1.052,2.227-1.676,3.281
			c-1.034,1.745-1.135,3.588-0.818,5.523c0.188,1.151,0.315,2.314,0.43,3.476c0.266,2.688-1.099,5.111-3.552,6.253
			c-1.428,0.665-2.886,1.267-4.341,1.872c-1.271,0.529-2.27,1.362-3.012,2.522c-0.771,1.209-1.562,2.405-2.353,3.602
			c-1.736,2.626-4.367,3.568-7.371,2.654c-1.409-0.429-2.823-0.842-4.232-1.271c-1.278-0.389-2.542-0.339-3.811,0.051
			c-1.505,0.463-3.009,0.938-4.529,1.351c-2.53,0.687-5.102-0.245-6.606-2.396c-0.892-1.275-1.735-2.586-2.568-3.9
			c-0.772-1.219-1.801-2.099-3.142-2.642c-1.346-0.547-2.676-1.132-4.007-1.714c-2.756-1.204-4.175-3.776-3.768-6.762
			c0.197-1.44,0.359-2.887,0.522-4.332c0.145-1.294-0.063-2.524-0.669-3.69c-0.671-1.289-1.319-2.59-1.969-3.891
			c-1.406-2.814-0.917-5.551,1.377-7.715c1.043-0.984,2.088-1.969,3.143-2.941c1.013-0.933,1.646-2.073,1.947-3.413
			c0.318-1.418,0.651-2.833,0.989-4.246c0.708-2.963,2.993-4.813,6.029-4.928c1.536-0.058,3.071-0.15,4.604-0.26
			c1.194-0.085,2.263-0.528,3.22-1.25c1.178-0.888,2.364-1.766,3.542-2.655C48.257,22.344,49.526,21.839,51.604,21.834z
			 M71.119,51.018c0.036-11.069-8.91-20.045-20.069-20.137c-11.049-0.092-20.136,8.964-20.168,20.1
			c-0.033,11.069,8.91,20.043,20.069,20.139C61.997,71.215,71.084,62.157,71.119,51.018z"/>
		<path fill-rule="evenodd" clip-rule="evenodd" fill="#F2AF2A" d="M69.151,51.028c-0.041,10.041-8.2,18.174-18.181,18.123
			C40.922,69.1,32.8,60.949,32.849,50.97c0.05-10.049,8.199-18.171,18.181-18.121C61.079,32.898,69.191,41.037,69.151,51.028z
			 M48.474,52.478c-1.239-1.241-2.547-2.569-3.875-3.876c-1.127-1.109-2.792-1.131-3.859-0.079
			c-1.102,1.087-1.094,2.741,0.049,3.898c1.946,1.966,3.9,3.923,5.868,5.867c1.155,1.142,2.757,1.157,3.896,0.014
			c3.572-3.585,7.131-7.183,10.68-10.791c1.123-1.141,1.119-2.787,0.049-3.856c-1.066-1.065-2.713-1.049-3.857,0.053
			c-0.546,0.526-1.061,1.083-1.603,1.613C53.388,47.695,50.95,50.066,48.474,52.478z"/>
	</g>
</g>
<g id="_x39_-Profesionales_calificados" display="none">
	<path display="inline" fill="#F2AF2A" d="M51,101.194C23.323,101.194,0.806,78.678,0.806,51C0.806,23.323,23.323,0.806,51,0.806
		c27.678,0,50.194,22.517,50.194,50.194C101.194,78.678,78.678,101.194,51,101.194z M51,1.806C23.875,1.806,1.806,23.875,1.806,51
		c0,27.126,22.068,49.194,49.194,49.194c27.126,0,49.194-22.068,49.194-49.194C100.194,23.875,78.126,1.806,51,1.806z"/>
	<g display="inline">
		<path fill-rule="evenodd" clip-rule="evenodd" fill="#F2AF2A" d="M51.036,72.729c-6.579,0-13.158,0.001-19.737,0
			c-1.295,0-1.623-0.325-1.624-1.608c-0.001-2.364-0.003-4.729,0.001-7.094c0.002-1.015,0.392-1.409,1.394-1.413
			c1.522-0.007,3.043-0.016,4.565,0.01c0.306,0.005,0.646,0.103,0.909,0.259c9.66,5.7,19.312,5.709,28.973,0.003
			c0.264-0.156,0.603-0.256,0.908-0.261c1.521-0.026,3.043-0.017,4.565-0.011c1.005,0.004,1.398,0.397,1.4,1.407
			c0.005,2.412,0.004,4.823,0.001,7.234c-0.002,1.099-0.377,1.473-1.479,1.473C64.288,72.731,57.662,72.729,51.036,72.729z"/>
		<path fill-rule="evenodd" clip-rule="evenodd" fill="#F2AF2A" d="M51.046,64.86c-13.635,0.009-24.759-11.121-24.743-24.755
			c0.016-13.616,11.104-24.699,24.718-24.708c13.639-0.009,24.76,11.116,24.743,24.753C75.749,53.766,64.659,64.851,51.046,64.86z
			 M28.551,40.108c-0.013,12.377,10.063,22.479,22.446,22.504c12.377,0.023,22.483-10.043,22.52-22.43
			c0.036-12.403-10.07-22.535-22.48-22.536C38.655,17.645,28.564,27.726,28.551,40.108z"/>
		<path fill-rule="evenodd" clip-rule="evenodd" fill="#F2AF2A" d="M37.541,74.979c0,1.559,0.019,3.028-0.008,4.498
			c-0.014,0.713-0.485,1.11-1.255,1.118c-1.333,0.014-2.667,0.005-4,0.005c-3.766,0-7.533,0-11.299,0c-0.252,0-0.504,0-0.884,0
			c0.205-0.235,0.324-0.39,0.462-0.527c1.354-1.357,2.714-2.711,4.066-4.071c0.754-0.759,0.758-1.284,0.009-2.036
			c-1.485-1.491-2.979-2.973-4.557-4.547c2.498,0,4.881,0,7.353,0c0,0.682-0.006,1.374,0.001,2.067c0.02,2.047,1.448,3.479,3.5,3.49
			C33.101,74.986,35.273,74.979,37.541,74.979z"/>
		<path fill-rule="evenodd" clip-rule="evenodd" fill="#F2AF2A" d="M81.854,80.6c-0.203,0-0.405,0-0.606,0
			c-5.055,0-10.107,0-15.161-0.001c-1.205,0-1.56-0.348-1.562-1.528c-0.003-1.331,0-2.662,0-4.049
			c0.233-0.016,0.435-0.041,0.636-0.042c1.591-0.003,3.188-0.093,4.771,0.018c3.414,0.238,4.999-1.407,4.713-4.692
			c-0.023-0.278-0.003-0.559-0.003-0.893c2.419,0,4.813,0,7.284,0c-0.155,0.179-0.274,0.334-0.41,0.471
			c-1.355,1.358-2.716,2.712-4.068,4.071c-0.759,0.762-0.765,1.282-0.012,2.032c1.489,1.488,2.988,2.967,4.482,4.448
			C81.896,80.489,81.875,80.544,81.854,80.6z"/>
		<path fill-rule="evenodd" clip-rule="evenodd" fill="#F2AF2A" d="M71.268,40.16c-0.019,11.158-9.129,20.233-20.283,20.204
			C39.83,60.334,30.762,51.214,30.8,40.061c0.038-11.128,9.12-20.175,20.248-20.167C62.207,19.903,71.287,29.003,71.268,40.16z
			 M66.773,35.314c-0.027-0.82-0.442-1.234-1.164-1.342c-2.893-0.431-5.783-0.868-8.681-1.264c-0.458-0.063-0.688-0.236-0.881-0.64
			c-1.253-2.615-2.534-5.216-3.8-7.825c-0.245-0.505-0.522-0.963-1.161-0.971c-0.673-0.008-0.959,0.461-1.216,0.995
			c-1.248,2.591-2.518,5.172-3.761,7.765c-0.2,0.416-0.432,0.625-0.925,0.691c-2.828,0.384-5.647,0.819-8.472,1.233
			c-0.551,0.081-1.077,0.201-1.273,0.817c-0.19,0.599,0.103,1.019,0.516,1.422c2.076,2.03,4.132,4.08,6.212,6.106
			c0.3,0.292,0.395,0.556,0.32,0.978c-0.517,2.949-1.018,5.901-1.476,8.859c-0.057,0.364,0.066,0.861,0.296,1.145
			c0.415,0.514,0.981,0.381,1.527,0.088c2.576-1.383,5.163-2.744,7.734-4.134c0.371-0.2,0.643-0.211,1.021-0.006
			c2.528,1.373,5.074,2.714,7.609,4.072c0.493,0.264,0.978,0.482,1.511,0.118c0.563-0.386,0.519-0.952,0.423-1.521
			c-0.479-2.836-0.947-5.675-1.464-8.505c-0.093-0.51,0.028-0.822,0.379-1.165c2.059-2.014,4.105-4.041,6.139-6.081
			C66.467,35.869,66.651,35.492,66.773,35.314z"/>
		<path fill-rule="evenodd" clip-rule="evenodd" fill="#F2AF2A" d="M51.079,26.992c1.125,2.307,2.218,4.502,3.267,6.719
			c0.323,0.684,0.765,1.022,1.535,1.119c2.203,0.276,4.397,0.631,6.594,0.958c0.206,0.031,0.409,0.083,0.613,0.125
			c0.077,0.09,0.155,0.179,0.232,0.269c-0.248,0.134-0.543,0.219-0.737,0.408c-1.594,1.55-3.16,3.128-4.756,4.677
			c-0.482,0.468-0.644,0.951-0.515,1.631c0.414,2.205,0.766,4.422,1.139,6.636c0.043,0.249,0.064,0.502,0.11,0.865
			c-0.614-0.321-1.146-0.595-1.673-0.876c-1.63-0.869-3.268-1.722-4.881-2.621c-0.64-0.357-1.194-0.36-1.84-0.005
			c-2.148,1.181-4.319,2.318-6.601,3.537c0.22-1.348,0.418-2.579,0.625-3.808c0.206-1.222,0.409-2.444,0.638-3.662
			c0.132-0.704-0.045-1.238-0.57-1.762c-1.736-1.734-3.423-3.518-5.146-5.3c1.088-0.167,2.269-0.35,3.451-0.528
			c1.271-0.191,2.541-0.403,3.817-0.553c0.688-0.08,1.086-0.422,1.374-1.026c0.974-2.046,1.977-4.08,2.969-6.118
			C50.824,27.473,50.932,27.275,51.079,26.992z"/>
	</g>
</g>
<g id="_x31_0-soporte_tecnico" display="none">
	<path display="inline" fill="#F2AF2A" d="M51,101.194C23.323,101.194,0.806,78.678,0.806,51C0.806,23.323,23.323,0.806,51,0.806
		c27.678,0,50.194,22.517,50.194,50.194C101.194,78.678,78.678,101.194,51,101.194z M51,1.806C23.875,1.806,1.806,23.875,1.806,51
		c0,27.126,22.068,49.194,49.194,49.194c27.126,0,49.194-22.068,49.194-49.194C100.194,23.875,78.126,1.806,51,1.806z"/>
	<path display="inline" fill-rule="evenodd" clip-rule="evenodd" fill="#F2AF2A" d="M50.561,51.058c0.292-0.209,0.585-0.244,0.878,0
		C51.146,51.058,50.854,51.058,50.561,51.058z"/>
	<path display="inline" fill-rule="evenodd" clip-rule="evenodd" fill="#F2AF2A" d="M51.377,51.023
		c-0.263,0.022-0.533,0.094-0.753-0.128c0.244,0,0.488,0,0.732,0C51.352,50.939,51.359,50.982,51.377,51.023z"/>
	<path display="inline" fill-rule="evenodd" clip-rule="evenodd" fill="#F2AF2A" d="M50.634,51.055c0.244-0.211,0.488-0.225,0.732,0
		C51.122,51.055,50.878,51.055,50.634,51.055z"/>
	<path display="inline" fill-rule="evenodd" clip-rule="evenodd" fill="#F2AF2A" d="M50.702,50.912
		c0.195-0.001,0.391-0.002,0.585-0.003c0.052,0.026,0.069,0.054,0.054,0.084c-0.016,0.029-0.032,0.044-0.048,0.044
		c-0.195,0-0.391,0-0.586,0c-0.046-0.026-0.063-0.053-0.049-0.082C50.673,50.927,50.687,50.912,50.702,50.912z"/>
	<path display="inline" fill-rule="evenodd" clip-rule="evenodd" fill="#F2AF2A" d="M50.71,51.047c0-0.043-0.002-0.086-0.005-0.129
		c0.207-0.004,0.432-0.09,0.591,0.129C51.101,51.047,50.905,51.047,50.71,51.047z"/>
	<path display="inline" fill-rule="evenodd" clip-rule="evenodd" fill="#F2AF2A" d="M51.214,50.92
		c0.003,0.042,0.005,0.083,0.005,0.125c-0.146,0-0.293,0-0.439,0C50.876,50.833,51.057,50.917,51.214,50.92z"/>
	<path display="inline" fill-rule="evenodd" clip-rule="evenodd" fill="#F2AF2A" d="M79.472,76.513
		c-0.728-5.579-2.829-10.568-6.577-14.792c-2.005-2.259-4.456-3.672-7.628-3.483c-1.216,0.072-2.439-0.009-3.658,0.022
		c-0.471,0.012-0.636-0.108-0.624-0.603c0.032-1.341,0.021-2.684,0.004-4.024c-0.004-0.341,0.097-0.607,0.309-0.864
		c0.993-1.212,1.807-2.54,2.524-3.928c0.11-0.212,0.187-0.456,0.467-0.524c1.621-0.397,2.632-1.554,3.403-2.906
		c1.498-2.623,2.172-5.366,0.831-8.288c-0.11-0.239-0.086-0.476-0.079-0.716c0.08-2.674-0.226-5.303-0.951-7.879
		c-0.462-1.638-1.094-3.183-1.946-4.589c-7.767-10.756-18.921-8.575-25.162-4.556c-0.091,0.079-0.192,0.154-0.306,0.226
		c-0.506,0.322-0.983,0.67-1.434,1.043c-0.055,0.045-0.108,0.091-0.161,0.136c-0.187,0.159-0.37,0.322-0.547,0.49
		c-0.021,0.021-0.044,0.041-0.065,0.062c-1.09,1.051-1.987,2.277-2.679,3.683c-1.699,3.454-1.945,7.104-1.403,10.848
		c0.092,0.637,0.177,1.203-0.323,1.756c-0.39,0.431-0.534,1.031-0.63,1.615c-0.32,1.962,0.188,3.777,1.042,5.507
		c0.771,1.562,1.792,2.928,3.539,3.501c0.396,0.13,0.613,0.323,0.786,0.667c0.717,1.417,1.547,2.765,2.536,4.01
		c0.225,0.282,0.324,0.571,0.319,0.935c-0.018,1.269-0.032,2.538,0.005,3.806c0.015,0.504-0.167,0.603-0.624,0.593
		c-1.219-0.028-2.443,0.054-3.659-0.022c-3.229-0.199-5.673,1.274-7.756,3.542c-2.294,2.497-3.85,5.437-5.025,8.589
		c-0.847,2.27-1.442,4.602-1.545,7.037c-0.042,0.987,0.384,1.686,1.295,2.081c0.291,0.126,0.58,0.253,0.869,0.382
		c6.774,3.026,13.842,5.104,21.248,5.713c0.486,0.041,1.014-0.58,1.464,0.42c0.196,0,0.391,0,0.586,0c0.146-1,0.327-1,0.491-1
		c0.173,0,0.346,0,0.519,0c0.199,0,0.416,0,0.601,1c0.732,0,1.464,0,2.196,0c0.244-1,0.488-1,0.732,0c0.342,0,0.684,0,1.025,0
		c0.292-1,0.585-1,0.878,0c0.195,0,0.391,0,0.586,0c0.09-1,0.288-0.32,0.442-0.332c2.652-0.184,5.285-0.597,7.896-1.111
		c4.989-0.981,9.826-2.475,14.407-4.709C79.429,79.001,79.721,78.414,79.472,76.513z M37.547,34.532
		c-0.02,0.032-0.077,0.04-0.117,0.058c-1.053-6.507,2.022-11.923,8.537-13.57c3.417-0.864,6.846-0.961,10.252,0.096
		c3.283,1.02,5.518,3.186,6.878,6.309c1.139,2.614,1.533,5.372,1.635,8.192c0.013,0.37-0.061,0.52-0.472,0.504
		c-4.939-0.189-9.838-0.618-14.439-2.625c-2.285-0.998-4.37-2.289-5.655-4.546c-0.191-0.336-0.334-0.703-0.476-1.065
		c-0.334-0.859-1.074-1.353-1.913-1.26c-0.847,0.094-1.528,0.725-1.617,1.631C39.927,30.62,38.793,32.597,37.547,34.532z
		 M39.707,43.948c-0.636-1.072-1.09-2.226-1.462-3.417c-0.104-0.333-0.082-0.566,0.152-0.851c1.566-1.907,2.971-3.924,4.046-6.154
		c0.156-0.325,0.269-0.407,0.563-0.129c3.61,3.399,8.097,4.825,12.835,5.672c2.96,0.53,5.947,0.761,8.951,0.74
		c0.593-0.004,0.755,0.184,0.704,0.746c-0.125,1.401-0.611,2.646-1.506,3.73c-0.194,0.235-0.409,0.378-0.753,0.335
		c-0.982-0.125-1.611,0.353-2.016,1.223c-1.034,2.22-2.293,4.299-3.946,6.12c-0.888,0.978-1.859,1.861-3.013,2.527
		c-2.741,1.583-5.695,1.136-8.227-1.255c-0.402-0.381-0.791-0.773-1.258-1.232c0.811,0.056,1.482,0.106,2.155,0.145
		c0.258,0.015,0.46,0.106,0.641,0.296c0.46,0.482,1.041,0.71,1.7,0.733c1.218,0.041,2.439,0.093,3.654-0.029
		c1.104-0.111,1.934-0.881,2.183-1.961c0.145-0.626,0.15-1.257,0.024-1.887c-0.254-1.267-1.213-2.119-2.5-2.159
		c-1.072-0.033-2.147-0.024-3.219-0.001c-0.788,0.017-1.498,0.287-1.979,0.935c-0.247,0.333-0.526,0.358-0.882,0.339
		C43.409,48.246,41.254,46.555,39.707,43.948z M42.736,62.041c1.142-0.018,1.775-0.601,1.824-1.738
		c0.041-0.926,0.032-1.854,0.013-2.78c-0.01-0.478,0.141-0.487,0.492-0.265c0.99,0.63,2.038,1.125,3.164,1.479
		c2.854,0.896,5.481,0.282,8.006-1.114c0.378-0.209,0.739-0.448,1.223-0.742c0,1.121-0.008,2.097,0.002,3.071
		c0.013,1.314,0.7,2.031,2.011,2.088c0.533,0.022,1.068,0.004,1.614,0.004c-0.012,0.271-0.229,0.331-0.367,0.438
		c-3.088,2.425-6.184,4.84-9.272,7.263c-0.259,0.203-0.441,0.382-0.803,0.096c-3.212-2.542-6.442-5.062-9.667-7.59
		c-0.034-0.026-0.056-0.069-0.164-0.207C41.504,62.043,42.12,62.051,42.736,62.041z M75.277,76.848
		c-4.881,2.171-9.965,3.623-15.249,4.403c-2.998,0.442-6.011,0.629-9.037,0.658c-6.459-0.022-12.758-1.042-18.891-3.076
		c-1.826-0.605-3.62-1.298-5.385-2.063c-0.24-0.104-0.503-0.146-0.429-0.544c0.887-4.751,2.745-9.021,6.158-12.526
		c0.461-0.474,1.021-0.826,1.595-1.153c0.49-0.279,0.877-0.263,1.365,0.124c4.533,3.585,9.092,7.138,13.645,10.699
		c0.172,0.135,0.345,0.271,0.52,0.403c1.067,0.811,1.783,0.822,2.838,0.001c3.079-2.397,6.15-4.804,9.224-7.207
		c1.633-1.277,3.293-2.521,4.882-3.852c0.566-0.475,0.996-0.412,1.552-0.096c1.437,0.816,2.519,2.003,3.426,3.343
		c2.085,3.08,3.567,6.416,4.17,10.116C75.729,76.495,75.668,76.673,75.277,76.848z"/>
</g>
<g id="_x31_1-_Muy_buenas_propuestas_y_precios" display="none">
	<path display="inline" fill="#F2AF2A" d="M51,101.194C23.323,101.194,0.806,78.678,0.806,51C0.806,23.323,23.323,0.806,51,0.806
		c27.678,0,50.194,22.517,50.194,50.194C101.194,78.678,78.678,101.194,51,101.194z M51,1.806C23.875,1.806,1.806,23.875,1.806,51
		c0,27.126,22.068,49.194,49.194,49.194c27.126,0,49.194-22.068,49.194-49.194C100.194,23.875,78.126,1.806,51,1.806z"/>
	<path display="inline" fill-rule="evenodd" clip-rule="evenodd" fill="#F2AF2A" d="M50.561,51.058c0.292-0.209,0.585-0.244,0.878,0
		C51.146,51.058,50.854,51.058,50.561,51.058z"/>
	<path display="inline" fill-rule="evenodd" clip-rule="evenodd" fill="#F2AF2A" d="M51.377,51.023
		c-0.263,0.022-0.533,0.094-0.753-0.128c0.244,0,0.488,0,0.732,0C51.352,50.939,51.359,50.982,51.377,51.023z"/>
	<path display="inline" fill-rule="evenodd" clip-rule="evenodd" fill="#F2AF2A" d="M50.634,51.055c0.244-0.211,0.488-0.225,0.732,0
		C51.122,51.055,50.878,51.055,50.634,51.055z"/>
	<path display="inline" fill-rule="evenodd" clip-rule="evenodd" fill="#F2AF2A" d="M50.702,50.912
		c0.195-0.001,0.391-0.002,0.585-0.003c0.052,0.026,0.069,0.054,0.054,0.084c-0.016,0.029-0.032,0.044-0.048,0.044
		c-0.195,0-0.391,0-0.586,0c-0.046-0.026-0.063-0.053-0.049-0.082C50.673,50.927,50.687,50.912,50.702,50.912z"/>
	<path display="inline" fill-rule="evenodd" clip-rule="evenodd" fill="#F2AF2A" d="M50.71,51.047c0-0.043-0.002-0.086-0.005-0.129
		c0.207-0.004,0.432-0.09,0.591,0.129C51.101,51.047,50.905,51.047,50.71,51.047z"/>
	<path display="inline" fill-rule="evenodd" clip-rule="evenodd" fill="#F2AF2A" d="M51.214,50.92
		c0.003,0.042,0.005,0.083,0.005,0.125c-0.146,0-0.293,0-0.439,0C50.876,50.833,51.057,50.917,51.214,50.92z"/>
	<path display="inline" fill-rule="evenodd" clip-rule="evenodd" fill="#F2AF2A" d="M81.836,47.077
		c0.158-1.419,0.365-2.877-0.412-4.182c-1.779-2.982-4.406-4.75-7.893-4.893c-3.34-0.137-6.689-0.04-10.033-0.018
		c-0.469,0.003-0.535-0.137-0.436-0.545c0.297-1.209,0.453-2.443,0.539-3.684c0.182-2.591-0.043-5.134-1.043-7.559
		c-1.043-2.533-2.678-4.515-5.355-5.432c-2.068-0.709-4.092-0.2-5.367,1.274c-0.418,0.482-0.632,1.009-0.623,1.666
		c0.026,2.039,0.01,4.079,0.01,6.118c0,0.286-0.012,0.563-0.11,0.841c-0.69,1.956-1.419,3.896-2.303,5.774
		c-1.134,2.41-2.489,4.673-4.446,6.522c-0.284,0.268-0.594,0.509-0.982,0.84c0-0.346-0.012-0.545,0.002-0.743
		c0.213-3.035-2.129-5.17-5.074-5.111c-4.465,0.089-8.873,0.023-13.34,0.023c-3.131,0-4.969,1.894-4.969,5.02
		c0,6.873,0,13.746,0,20.619c0,2.06-0.076,4.12-0.055,6.18c0.025,2.706,1.919,4.731,4.523,4.744c4.813,0.024,9.613,0.02,14.425,0
		c1.934-0.008,3.584-1.234,4.229-3.046c0.088-0.246,0.156-0.498,0.244-0.774c0.153,0.07,0.28,0.124,0.403,0.186
		c1.406,0.702,2.88,1.05,4.468,1.044c7.607-0.025,15.213-0.021,22.82-0.002c1.377,0.004,2.509-0.472,3.438-1.448
		c1.377-1.448,2.179-3.178,2.39-5.166c0.045-0.43,0.168-0.749,0.516-1.035c0.719-0.593,1.205-1.37,1.559-2.23
		c0.584-1.422,0.729-2.914,0.715-4.433c-0.002-0.218-0.037-0.426,0.133-0.632c1.678-2.032,1.885-4.339,1.23-6.797
		c-0.047-0.174-0.109-0.329,0.008-0.517C81.537,48.887,81.736,47.99,81.836,47.077z M41,69.585c0,1.619-0.844,2.351-2.463,2.352
		c-4.506,0.001-9.069-0.022-13.575,0.014c-1.404,0.012-2.468-0.737-2.444-2.44c0.061-4.423,0.006-8.848,0.006-13.271
		c0-4.444-0.008-8.889-0.006-13.333c0-1.589,0.713-2.304,2.311-2.305c4.547-0.001,9.206-0.002,13.752,0
		c1.587,0,2.419,0.728,2.419,2.318C41,51.807,41,60.696,41,69.585z M79.133,47.29c-0.078,0.52-0.225,0.993-0.719,1.342
		c-0.484,0.343-0.52,0.961-0.23,1.552c1.006,2.06,0.742,3.881-0.813,5.544c-0.318,0.341-0.396,0.732-0.377,1.18
		c0.053,1.12,0.086,2.239-0.195,3.343c-0.283,1.11-0.818,2.028-1.85,2.608c-0.541,0.304-0.686,0.796-0.658,1.401
		c0.076,1.625-0.516,3.025-1.543,4.256c-0.451,0.54-1.004,0.808-1.754,0.803c-3.936-0.031-7.871-0.015-11.807-0.015
		c-3.793,0-7.586-0.016-11.379,0.008c-1.525,0.009-2.794-0.61-4-1.445c-0.294-0.203-0.404-0.465-0.404-0.829
		c0.014-6.546,0.016-13.091,0.018-19.636c0-0.249,0.008-0.454,0.266-0.62c3.189-2.043,5.324-4.982,7.004-8.301
		c1.207-2.381,2.137-4.874,3.027-7.383c0.104-0.292,0.119-0.595,0.119-0.904c-0.004-1.958-0.002-3.915-0.002-5.873
		c0-0.716,0.229-1.009,0.945-1.171c0.908-0.206,1.746,0.026,2.514,0.497c1.832,1.126,2.766,2.883,3.295,4.885
		c0.781,2.956,0.477,5.901-0.176,8.833c-0.105,0.476-0.234,0.947-0.357,1.419c-0.283,1.091,0.254,1.807,1.395,1.813
		c2.121,0.012,4.242,0.003,6.363,0.003c1.938,0,3.879-0.084,5.811,0.021c2.383,0.13,4.188,1.39,5.418,3.379
		C79.668,45.011,79.299,46.188,79.133,47.29z"/>
</g>
<g id="_x31_2-Control_y_seguimiento_de_su_sitio_web" display="none">
	<path display="inline" fill="#F2AF2A" d="M51,101.194C23.323,101.194,0.806,78.678,0.806,51C0.806,23.323,23.323,0.806,51,0.806
		c27.678,0,50.194,22.517,50.194,50.194C101.194,78.678,78.678,101.194,51,101.194z M51,1.806C23.875,1.806,1.806,23.875,1.806,51
		c0,27.126,22.068,49.194,49.194,49.194c27.126,0,49.194-22.068,49.194-49.194C100.194,23.875,78.126,1.806,51,1.806z"/>
	<path display="inline" fill-rule="evenodd" clip-rule="evenodd" fill="#F2AF2A" d="M50.561,51.058c0.292-0.209,0.585-0.244,0.878,0
		C51.146,51.058,50.854,51.058,50.561,51.058z"/>
	<path display="inline" fill-rule="evenodd" clip-rule="evenodd" fill="#F2AF2A" d="M51.377,51.023
		c-0.263,0.022-0.533,0.094-0.753-0.128c0.244,0,0.488,0,0.732,0C51.352,50.939,51.359,50.982,51.377,51.023z"/>
	<path display="inline" fill-rule="evenodd" clip-rule="evenodd" fill="#F2AF2A" d="M50.634,51.055c0.244-0.211,0.488-0.225,0.732,0
		C51.122,51.055,50.878,51.055,50.634,51.055z"/>
	<path display="inline" fill-rule="evenodd" clip-rule="evenodd" fill="#F2AF2A" d="M50.702,50.912
		c0.195-0.001,0.391-0.002,0.585-0.003c0.052,0.026,0.069,0.054,0.054,0.084c-0.016,0.029-0.032,0.044-0.048,0.044
		c-0.195,0-0.391,0-0.586,0c-0.046-0.026-0.063-0.053-0.049-0.082C50.673,50.927,50.687,50.912,50.702,50.912z"/>
	<path display="inline" fill-rule="evenodd" clip-rule="evenodd" fill="#F2AF2A" d="M50.71,51.047c0-0.043-0.002-0.086-0.005-0.129
		c0.207-0.004,0.432-0.09,0.591,0.129C51.101,51.047,50.905,51.047,50.71,51.047z"/>
	<path display="inline" fill-rule="evenodd" clip-rule="evenodd" fill="#F2AF2A" d="M51.214,50.92
		c0.003,0.042,0.005,0.083,0.005,0.125c-0.146,0-0.293,0-0.439,0C50.876,50.833,51.057,50.917,51.214,50.92z"/>
	<g display="inline">
		<path fill-rule="evenodd" clip-rule="evenodd" fill="#F2AF2A" d="M61.273,42.062c-0.048,10.777-8.671,19.266-19.521,19.214
			c-10.438-0.05-19.04-8.784-18.996-19.286c0.044-10.646,8.705-19.274,19.304-19.232C52.716,22.8,61.319,31.445,61.273,42.062z
			 M58.558,42.064c0.023-9.158-7.35-16.513-16.596-16.556c-9.002-0.042-16.428,7.381-16.454,16.447
			c-0.026,9.134,7.348,16.583,16.433,16.602C51.088,58.576,58.534,51.186,58.558,42.064z"/>
		<path fill-rule="evenodd" clip-rule="evenodd" fill="#F2AF2A" d="M60.971,57.403c1.335,0.008,2.222,0.362,2.941,1.08
			c4.735,4.726,9.473,9.45,14.189,14.196c1.547,1.557,1.506,3.92-0.024,5.445c-1.49,1.486-3.866,1.503-5.404-0.026
			c-4.73-4.704-9.444-9.425-14.152-14.152c-1.16-1.165-1.456-2.806-0.794-4.254C58.418,58.183,59.636,57.449,60.971,57.403z"/>
		<path fill-rule="evenodd" clip-rule="evenodd" fill="#F2AF2A" d="M55.465,60.222c-0.71-0.061-1.133-0.304-1.366-0.809
			c-0.232-0.5-0.215-1.025,0.166-1.421c1.216-1.259,2.449-2.503,3.712-3.714c0.522-0.501,1.348-0.406,1.844,0.111
			c0.484,0.504,0.553,1.278,0.054,1.799c-1.197,1.25-2.427,2.469-3.672,3.671C55.983,60.071,55.629,60.145,55.465,60.222z"/>
		<path fill-rule="evenodd" clip-rule="evenodd" fill="#F2AF2A" d="M42.242,54.158c0.771-0.117,1.731-0.243,2.685-0.416
			c0.735-0.134,1.216,0.064,1.354,0.632c0.132,0.54-0.227,0.978-0.949,1.157c-8.096,2.021-16.211-3.647-17.118-11.939
			c-0.325-2.977,0.25-5.757,1.684-8.375c0.258-0.47,0.629-0.693,1.153-0.547c0.426,0.119,0.652,0.459,0.621,0.879
			c-0.02,0.275-0.176,0.549-0.307,0.806c-1.769,3.447-1.968,6.993-0.375,10.512C33.12,51.575,36.937,53.863,42.242,54.158z"/>
	</g>
</g>
<g id="color" display="none">
	<rect x="9" y="-24" display="inline" fill="#0F3246" width="13" height="13"/>
	<rect x="25" y="-24" display="inline" fill="#F2AF2A" width="13" height="13"/>
</g>
</svg>
